<?xml version="1.0" encoding="UTF-8"?>
<!DOCTYPE svg PUBLIC "-//W3C//DTD SVG 1.1//EN" "http://www.w3.org/Graphics/SVG/1.1/DTD/svg11.dtd">
<svg version="1.1" xmlns="http://www.w3.org/2000/svg" xmlns:xlink="http://www.w3.org/1999/xlink" x="0" y="0" width="614.999" height="434.999" viewBox="0, 0, 614.999, 434.999">
  <defs>
    <linearGradient id="Gradient_1" gradientUnits="userSpaceOnUse" x1="2111.555" y1="2879.53" x2="403.563" y2="1612.915" gradientTransform="matrix(0.072, 0, 0, 0.072, 0, 0)">
      <stop offset="0" stop-color="#FEFEFE"/>
      <stop offset="1" stop-color="#373435"/>
    </linearGradient>
    <linearGradient id="Gradient_2" gradientUnits="userSpaceOnUse" x1="3509.86" y1="3204.39" x2="571.4" y2="1025.295" gradientTransform="matrix(0.072, 0, 0, 0.072, 0, 0)">
      <stop offset="0" stop-color="#FEFEFE"/>
      <stop offset="1" stop-color="#373435"/>
    </linearGradient>
    <linearGradient id="Gradient_3" gradientUnits="userSpaceOnUse" x1="2120.51" y1="2865.395" x2="420.866" y2="1605" gradientTransform="matrix(0.072, 0, 0, 0.072, 0, 0)">
      <stop offset="0" stop-color="#FEFEFE"/>
      <stop offset="1" stop-color="#373435"/>
    </linearGradient>
    <linearGradient id="Gradient_4" gradientUnits="userSpaceOnUse" x1="2677.46" y1="956.695" x2="1508.64" y2="89.921" gradientTransform="matrix(0.072, 0, 0, 0.072, 0, 0)">
      <stop offset="0" stop-color="#FEFEFE"/>
      <stop offset="1" stop-color="#373435"/>
    </linearGradient>
    <linearGradient id="Gradient_5" gradientUnits="userSpaceOnUse" x1="722.38" y1="NaN" x2="717.345" y2="NaN" gradientTransform="matrix(0.072, 0, 0, 0.072, 0, 0)">
      <stop offset="0" stop-color="#FEFEFE"/>
      <stop offset="1" stop-color="#373435"/>
    </linearGradient>
    <linearGradient id="Gradient_6" gradientUnits="userSpaceOnUse" x1="2008.465" y1="3494.765" x2="5031.05" y2="3494.765" gradientTransform="matrix(0.072, 0, 0, 0.072, 0, 0)">
      <stop offset="0" stop-color="#FEFEFE"/>
      <stop offset="1" stop-color="#373435"/>
    </linearGradient>
    <linearGradient id="Gradient_7" gradientUnits="userSpaceOnUse" x1="1948.505" y1="2031.32" x2="5015.5" y2="2031.32" gradientTransform="matrix(0.072, 0, 0, 0.072, 0, 0)">
      <stop offset="0" stop-color="#FEFEFE"/>
      <stop offset="1" stop-color="#373435"/>
    </linearGradient>
    <linearGradient id="Gradient_8" gradientUnits="userSpaceOnUse" x1="1998.445" y1="3466.93" x2="5030.55" y2="3466.93" gradientTransform="matrix(0.072, 0, 0, 0.072, 0, 0)">
      <stop offset="0" stop-color="#FEFEFE"/>
      <stop offset="1" stop-color="#373435"/>
    </linearGradient>
    <linearGradient id="Gradient_9" gradientUnits="userSpaceOnUse" x1="NaN" y1="NaN" x2="NaN" y2="NaN" gradientTransform="matrix(0.072, 0, 0, 0.072, 0, 0)">
      <stop offset="0" stop-color="#FEFEFE"/>
      <stop offset="1" stop-color="#373435"/>
    </linearGradient>
    <linearGradient id="Gradient_10" gradientUnits="userSpaceOnUse" x1="2379.175" y1="1488.82" x2="2602.145" y2="1488.82" gradientTransform="matrix(0.072, 0, 0, 0.072, 0, 0)">
      <stop offset="0" stop-color="#FEFEFE"/>
      <stop offset="1" stop-color="#373435"/>
    </linearGradient>
    <linearGradient id="Gradient_11" gradientUnits="userSpaceOnUse" x1="2320.69" y1="1716.515" x2="2349.195" y2="1716.515" gradientTransform="matrix(0.072, 0, 0, 0.072, 0, 0)">
      <stop offset="0" stop-color="#FEFEFE"/>
      <stop offset="1" stop-color="#373435"/>
    </linearGradient>
    <linearGradient id="Gradient_12" gradientUnits="userSpaceOnUse" x1="1948.505" y1="3038.915" x2="1957.52" y2="3038.915" gradientTransform="matrix(0.072, 0, 0, 0.072, 0, 0)">
      <stop offset="0" stop-color="#FEFEFE"/>
      <stop offset="1" stop-color="#373435"/>
    </linearGradient>
  </defs>
  <g id="Layer_x0020_1">
    <path d="M614.639,176.448 C614.639,176.448 614.639,78.141 614.639,72.74 C616.439,70.939 617.519,68.419 617.519,65.538 L617.519,65.538 L617.519,65.538 L617.519,65.538 C617.519,64.818 617.519,63.737 617.159,63.017 C615.359,53.655 604.197,43.572 589.434,43.932 L588.354,44.292 C579.352,41.051 468.451,1.08 468.451,1.08 L465.93,-0 C456.928,-3.601 452.968,-4.681 427.763,-2.521 C380.233,1.8 373.032,5.041 369.791,8.642 C369.071,9.363 368.351,10.443 367.991,11.883 C367.991,12.243 368.351,17.285 368.351,17.285 L367.631,14.764 C367.631,14.764 369.071,69.859 370.512,118.472 C359.71,71.299 348.907,23.046 347.467,14.404 C346.027,5.762 341.346,1.44 337.745,-0.72 C334.145,-2.881 330.184,-3.601 326.223,-3.601 L324.783,-3.601 C320.102,-3.601 316.141,-2.521 314.341,-1.8 C297.417,-0.72 61.212,14.764 33.847,18.365 C23.765,19.445 16.923,22.686 12.602,27.007 C6.841,29.528 2.521,32.769 0.72,37.45 C0,39.251 -0.36,41.051 -0.36,42.852 L-0.36,42.852 L-0.36,42.852 C-0.36,45.372 0.36,47.533 0.72,48.613 C1.8,54.375 35.287,229.743 42.488,262.872 C49.69,297.441 52.93,311.485 72.014,309.685 C72.014,309.685 151.229,297.801 152.67,297.441 C153.39,297.441 163.472,298.882 174.634,300.322 L174.274,300.682 L149.069,330.93 C148.349,332.011 147.629,333.451 147.629,334.891 C147.629,334.891 147.629,336.332 147.629,337.772 C139.707,339.213 105.5,346.055 105.5,346.055 C102.62,346.415 100.819,348.935 100.459,351.816 L99.019,379.184 C99.019,381.344 100.099,383.505 101.9,384.585 L186.156,434.639 C187.236,435.359 187.956,435.719 188.676,435.719 L188.676,435.719 L188.676,435.719 C189.037,435.719 189.397,435.719 189.757,435.719 L192.637,434.999 L191.917,434.999 C200.919,432.838 404.358,383.865 455.848,368.381 C456.928,369.461 458.009,370.541 459.449,371.622 C458.369,373.782 457.648,376.303 457.648,378.823 C457.288,379.904 457.288,380.984 457.288,382.064 C457.288,384.945 458.369,387.826 460.169,390.347 C468.451,401.87 491.855,404.03 501.937,404.751 C511.299,405.471 520.301,405.111 527.502,403.31 C535.063,401.87 541.185,399.349 544.785,396.108 C545.865,395.388 546.226,395.028 546.586,393.948 C546.586,393.948 547.306,391.067 547.666,389.626 C548.746,386.746 548.746,383.505 547.666,380.624 C547.666,380.624 546.586,378.823 546.226,377.743 C543.345,370.181 536.504,363.339 526.422,358.298 C523.181,356.497 519.58,355.417 515.62,354.337 C515.26,354.337 515.26,353.977 514.539,353.977 L513.099,353.977 C508.418,352.896 503.737,352.536 499.417,352.536 C501.577,350.016 502.657,347.495 502.657,345.334 C504.457,346.055 507.698,347.135 512.019,347.135 L509.138,346.415 L515.98,347.855 C517.06,348.215 515.98,347.855 516.7,347.495 L519.22,346.775 L517.78,347.135 L523.541,346.055 L532.903,342.814 L604.917,322.288 L604.197,322.648 C609.598,321.928 613.919,316.887 613.919,311.485 L613.919,310.045 L613.559,311.845 L614.639,303.923 L613.919,177.889 z M603.837,313.646 C603.837,313.646 530.743,335.612 522.461,338.492 C514.179,341.373 509.859,336.692 510.939,321.928 C510.579,325.529 512.019,328.05 513.459,329.49 L512.019,139.718 L577.552,126.395 L577.912,317.247 C579.352,316.887 580.792,316.526 581.872,316.166 L581.152,126.034 L602.396,121.713 L602.396,121.713 L608.158,118.472 C608.158,118.472 609.238,290.959 609.238,302.843 C609.238,314.726 603.837,314.366 603.837,314.366 z M502.657,397.549 C505.898,397.189 508.778,396.468 511.299,395.748 C498.336,396.108 484.294,393.948 475.292,389.987 C475.652,383.145 478.532,377.023 483.934,371.982 C491.855,364.42 503.737,361.179 512.739,360.819 C510.579,359.738 508.418,358.658 505.898,357.578 C521.381,357.218 539.384,374.142 542.265,381.344 C545.145,388.906 531.823,399.709 502.297,397.189 z M607.077,117.752 L509.498,137.558 L509.498,133.596 L511.659,133.236 L511.299,112.711 L602.756,95.066 L602.756,93.986 L606.717,92.905 L606.717,117.752 z M509.138,336.332 L509.498,337.052 C507.338,336.692 505.898,335.972 505.898,335.972 C505.898,335.972 385.635,273.315 383.474,272.594 C383.474,272.234 383.474,265.753 383.114,255.67 L383.834,255.67 C388.155,255.31 391.036,253.869 393.196,251.349 L440.725,268.633 C441.805,268.993 442.886,268.273 443.246,267.553 C443.606,266.473 442.886,265.392 441.805,265.032 L394.996,248.108 C395.716,245.227 395.716,242.346 394.996,240.186 L440.005,256.75 C441.085,257.11 442.165,256.75 442.526,255.67 C442.886,254.59 442.165,253.509 441.445,253.149 L393.196,235.144 C393.196,234.784 392.476,231.903 391.036,226.502 L439.645,244.867 C440.725,245.227 441.805,244.867 442.165,243.787 C442.526,242.706 442.165,241.626 441.085,241.266 L389.955,222.181 C389.235,219.66 388.875,216.419 387.795,213.178 L439.285,232.624 C440.365,232.984 441.445,232.624 441.805,231.543 C442.165,230.463 441.805,229.383 440.725,229.023 L388.515,209.217 C387.795,208.857 387.075,209.217 386.715,209.577 C384.914,201.295 382.754,191.932 380.233,181.129 C378.433,116.312 376.633,37.81 375.913,19.445 C391.396,27.728 462.689,57.616 494.736,70.939 C507.338,79.222 506.258,88.944 506.258,89.664 L506.618,90.745 L508.778,337.052 z M481.053,369.461 C475.292,374.862 472.051,381.344 471.331,388.546 C465.21,384.585 466.29,380.984 466.65,379.904 L466.65,379.544 L466.65,379.184 C467.01,373.782 470.971,368.741 477.452,365.14 C482.853,362.259 490.055,360.098 497.976,359.738 C491.495,361.899 485.734,365.14 481.053,369.461 z M51.13,261.071 C43.929,227.582 9.722,48.253 9.362,46.453 L9.362,46.093 L9.362,45.732 C9.362,45.732 7.561,42.492 9.362,39.251 C10.082,38.17 11.162,36.73 12.963,35.65 C12.963,36.37 12.602,36.73 12.602,37.45 C12.602,39.971 13.323,41.771 13.683,42.492 C14.403,45.732 48.249,224.341 55.451,257.83 C61.572,286.278 64.092,298.882 74.174,301.402 L71.654,301.762 C60.132,302.843 58.331,295.641 51.13,261.431 z M316.141,6.122 L316.501,6.122 L316.861,6.122 C316.861,6.122 327.303,2.521 334.145,6.482 C337.025,8.282 339.186,11.523 339.906,15.844 C343.146,35.29 387.435,227.582 389.595,235.864 C389.955,236.225 393.196,243.066 390.676,247.748 C389.595,249.908 387.075,250.989 383.474,251.349 L80.296,297.441 C68.773,298.522 66.973,291.32 59.772,256.75 C52.57,223.261 18.364,43.212 18.003,41.411 L18.003,41.051 L17.643,40.691 C17.643,40.691 15.843,37.45 17.643,34.209 C19.084,31.329 23.405,27.728 35.647,26.287 C63.012,22.686 313.981,6.482 316.501,6.122 z M609.238,64.818 L609.238,65.898 C609.238,66.978 608.878,68.059 607.797,68.419 C607.437,68.419 569.27,80.302 510.939,86.784 C510.579,83.183 508.778,76.701 501.577,70.219 C523.181,69.499 589.074,60.857 593.395,52.574 C602.396,53.655 608.518,60.136 609.238,64.818 z M607.077,91.105 L509.498,109.83 L509.498,105.869 L511.659,105.509 L511.659,91.105 C557.028,86.424 590.154,78.141 603.117,74.54 L603.117,73.82 L604.557,73.82 C605.277,73.46 605.997,73.46 606.717,73.1 L606.717,73.82 L607.437,73.82 L607.437,91.105 z M196.958,425.276 C196.958,424.556 197.318,423.836 197.318,423.116 C197.318,422.035 197.318,420.955 196.958,419.875 C196.958,418.434 194.798,406.191 178.955,396.468 C165.992,388.546 125.664,361.539 112.342,352.536 C140.427,346.775 367.631,301.402 368.711,301.402 C369.071,301.762 382.034,307.524 398.597,315.086 L394.996,315.806 L394.636,315.806 L369.071,321.568 C368.351,321.928 367.631,322.648 367.631,323.368 C367.631,324.089 367.991,325.169 368.711,325.529 L415.52,348.575 C415.88,348.935 416.601,348.935 416.961,348.575 L449.367,339.213 C450.087,338.853 450.447,338.492 450.807,338.132 C460.889,342.814 468.09,346.055 468.451,346.055 C468.811,346.415 469.891,347.495 469.891,349.656 L469.891,350.016 C469.891,351.816 468.451,353.977 465.93,355.777 C459.089,360.458 304.619,398.989 197.318,424.556 z M108.021,377.743 C108.021,375.943 108.741,360.819 109.101,355.417 C120.623,363.339 163.112,391.787 176.794,400.069 C191.197,408.712 192.997,419.875 192.997,420.595 L192.997,420.955 C192.997,421.675 193.357,422.395 193.357,423.116 C193.357,424.196 193.357,424.916 192.637,425.636 C191.917,426.356 191.197,426.717 190.837,426.717 C189.397,425.996 110.181,378.823 108.381,377.743 z M307.499,309.685 L268.612,300.682 L281.214,299.962 C281.214,299.962 304.619,303.923 322.262,306.804 L307.499,309.685 z M286.615,313.646 C280.494,312.205 274.013,311.125 269.332,310.045 L265.731,304.283 C272.933,306.084 287.696,309.324 297.417,311.485 L286.255,313.646 z M265.371,310.765 C260.33,311.485 230.084,316.526 227.204,317.247 L216.402,296.721 L253.129,290.959 C257.09,297.441 263.211,307.884 265.011,310.765 z M207.76,297.801 L212.441,297.081 C215.682,303.563 221.083,313.646 222.883,316.887 C221.083,316.887 220.003,316.526 218.922,316.526 L218.922,316.166 L216.762,307.164 L216.762,306.804 L216.762,306.444 L216.402,306.084 L216.042,305.724 L215.322,305.363 L215.322,305.363 L215.322,305.363 L215.322,305.363 C215.322,305.363 213.521,305.003 212.081,304.643 C210.641,302.123 209.2,299.602 208.12,297.081 z M291.296,271.874 C272.933,279.436 257.09,285.918 257.09,285.918 L200.919,294.56 C200.919,294.56 185.076,292.76 167.792,290.599 L291.296,271.874 z M213.521,312.565 C213.881,314.366 214.241,315.446 214.241,316.166 C213.881,316.887 210.281,322.648 206.32,329.13 L201.639,330.21 C205.6,324.089 209.921,317.607 213.521,312.565 z M438.205,338.132 L437.485,337.412 L430.643,333.811 L434.244,332.731 C437.845,334.531 440.725,335.972 442.526,336.692 C441.445,337.052 439.645,337.412 438.205,338.132 z M394.636,319.767 L403.278,324.449 L398.597,325.889 L389.595,321.208 C391.396,320.848 393.196,320.488 394.636,320.127 z M474.932,341.013 L474.212,341.373 L473.852,341.013 L474.932,341.373 z M415.52,325.169 L416.601,324.449 C420.561,326.249 424.882,328.41 428.843,330.21 L425.602,331.29 L414.44,325.529 L415.52,325.169 z M419.841,332.731 L415.16,334.171 L404.358,328.41 L409.039,326.969 L420.201,332.731 z M411.56,321.928 L409.039,322.648 L400.757,318.327 C401.838,317.967 402.558,317.967 402.558,317.967 C402.918,317.967 406.519,319.767 411.199,321.928 z M383.474,322.288 L383.834,322.648 L392.836,327.329 L386.355,329.13 L385.635,329.49 C380.954,327.329 376.993,325.169 375.193,324.089 C377.353,323.728 380.233,323.008 383.474,322.288 z M398.237,330.21 L409.039,335.972 L402.918,337.772 L402.558,338.132 C398.957,336.332 394.996,334.531 391.036,332.371 L398.237,330.21 z M414.44,338.492 L422.362,342.814 C419.121,343.894 416.601,344.614 416.24,344.614 C415.88,344.614 412.64,342.814 407.959,340.653 L414.44,338.853 z M427.763,341.013 L427.403,340.653 L420.201,337.052 L425.242,335.612 L433.164,339.933 C431.363,340.293 429.923,341.013 428.123,341.373 z M495.456,341.013 L495.456,341.733 C495.456,346.775 488.254,349.656 481.773,351.456 C477.452,352.536 474.212,353.617 471.691,354.697 C472.411,353.257 472.771,352.176 473.131,350.736 L473.131,350.376 C475.292,349.656 478.172,348.935 481.053,348.215 C487.894,346.415 490.775,344.614 491.495,343.174 L491.855,342.454 L491.495,341.733 C490.415,337.052 474.212,329.85 436.404,328.05 L427.763,324.089 C472.771,325.169 494.376,333.811 495.096,341.733 z M419.841,315.086 C417.681,314.006 371.592,293.12 371.592,293.12 C370.512,292.4 369.071,292.4 367.991,292.76 C367.991,292.76 335.585,299.242 333.424,299.602 C331.264,299.242 282.295,290.959 282.295,290.959 C281.935,290.959 281.214,290.959 280.854,290.959 C280.854,290.959 266.452,292.04 264.291,292.04 L264.291,292.04 C270.412,289.519 308.94,273.675 310.02,273.315 C311.46,272.955 374.112,263.592 374.112,263.592 L375.193,263.232 C375.193,268.273 375.553,273.315 375.553,273.315 C375.553,275.475 376.993,277.636 378.793,278.716 C378.793,278.716 416.601,298.522 452.247,316.887 C441.085,315.806 429.923,315.446 420.561,315.446 z M496.176,65.538 L496.176,65.538 C446.126,44.652 382.754,17.645 376.993,13.684 C379.513,11.883 389.595,9.002 429.203,5.401 C453.688,3.241 456.568,4.321 463.77,7.202 L466.65,8.282 L587.273,51.854 C572.871,57.616 507.698,67.698 496.536,65.538 z M180.395,305.724 C181.475,305.363 200.559,301.042 203.079,300.322 C204.159,302.123 207.4,307.884 207.4,307.884 C207.76,308.244 208.12,308.604 208.84,308.964 C208.84,308.964 209.921,308.964 210.641,309.324 C206.32,315.086 200.559,324.089 195.878,331.29 L155.55,339.213 C155.55,337.412 155.55,335.252 155.55,334.531 C156.63,333.451 178.955,306.444 180.035,305.363 z M465.93,360.098 L466.65,360.458 C467.37,361.179 469.171,361.899 472.411,362.979 C471.331,363.699 470.251,364.78 469.171,365.86 C465.93,364.78 463.77,362.979 462.689,361.539 C464.13,361.179 465.21,360.458 466.29,360.098 z M514.9,352.536 L513.819,352.176 L514.9,352.536 z" fill="#373435"/>
    <path d="M458.729,378.463 L458.729,378.103 L458.729,377.383 z" fill="#373435"/>
    <path d="M368.351,12.243 L368.351,11.883 L368.351,11.523 z" fill="#373435"/>
    <path d="M367.991,13.684 C367.991,13.684 367.991,12.964 368.351,12.243 L367.991,13.324 L367.991,13.684 z" fill="#373435"/>
    <path d="M280.854,299.602 L268.612,300.322 L307.499,309.324 L322.262,306.444 C304.979,303.563 281.214,299.602 281.214,299.602 z" fill="#B7B9BB"/>
    <path d="M266.091,304.283 L269.692,310.045 C274.373,311.125 280.494,312.565 286.615,313.646 L297.778,311.485 C288.056,309.325 273.653,305.724 266.091,304.283 z" fill="#B7B9BB"/>
    <path d="M216.402,296.721 L226.844,317.247 C229.724,316.887 259.97,311.845 265.011,310.765 C263.211,307.884 257.09,297.441 253.129,290.96 L216.402,296.721 z" fill="#B7B9BB"/>
    <path d="M214.962,306.084 L214.962,306.084 L214.962,306.084 L214.962,306.084 L215.682,306.444 L216.042,306.804 L216.402,307.164 L216.402,307.524 L216.402,307.884 L218.562,316.887 L218.562,317.247 C219.642,317.247 220.723,317.247 222.163,317.607 C220.363,314.366 215.322,304.283 212.081,297.801 L207.76,298.522 C209.2,301.042 210.641,303.563 211.721,306.084 C213.161,306.444 214.962,306.444 214.962,306.444 z" fill="#B7B9BB"/>
    <path d="M196.238,331.651 C200.919,324.089 207.04,315.446 211.001,309.685 C209.921,309.685 209.2,309.324 209.2,309.324 C208.48,309.324 208.12,308.964 207.76,308.244 C207.76,308.244 204.52,302.483 203.439,300.682 C200.919,301.402 181.835,305.724 180.395,306.084 C179.675,307.164 156.99,334.171 155.91,335.252 C155.91,335.972 155.91,337.772 155.91,339.573 L196.238,331.651 z" fill="#B7B9BB"/>
    <path d="M206.68,329.49 C210.641,323.008 214.241,317.247 214.601,316.526 C214.601,315.806 214.241,314.726 213.881,312.925 C210.281,317.967 205.96,324.449 201.999,330.57 L206.68,329.49 z" fill="#B7B9BB"/>
    <path d="M506.978,88.584 C506.978,88.224 508.058,78.501 495.456,69.859 C463.41,56.535 392.116,26.287 376.633,18.365 C376.993,36.37 379.153,114.871 380.954,180.049 C383.474,190.492 385.635,200.215 387.435,208.497 C388.155,208.137 388.875,207.777 389.235,208.137 L441.445,227.942 C442.526,228.302 442.886,229.383 442.526,230.463 C442.165,231.543 441.085,231.903 440.005,231.543 L388.515,212.098 C389.235,215.339 389.955,218.22 390.675,221.1 L441.805,240.186 C442.886,240.546 443.606,241.626 442.886,242.706 C442.526,243.787 441.445,244.147 440.365,243.787 L391.756,225.422 C393.196,230.823 393.556,234.064 393.916,234.064 L442.165,252.069 C443.246,252.429 443.606,253.509 443.246,254.59 C442.886,255.67 441.805,256.39 440.725,255.67 L395.716,239.105 C396.077,241.626 396.437,244.507 395.716,247.027 L442.526,263.952 C443.606,264.312 444.326,265.392 443.966,266.473 C443.606,267.553 442.526,268.273 441.445,267.553 L393.916,250.268 C391.756,252.789 388.875,254.229 384.554,254.59 L384.554,254.59 L384.554,254.59 L383.834,254.59 C384.194,265.032 384.194,271.154 384.194,271.514 C386.355,272.594 506.618,334.891 506.618,334.891 C506.618,334.891 508.058,335.612 510.219,335.972 L509.859,335.252 L507.698,88.944 L507.338,87.864 z M385.995,171.407 C386.355,170.327 387.795,169.966 388.515,170.327 L440.725,190.852 C441.805,191.212 442.165,192.653 441.805,193.373 C441.445,194.453 440.365,194.813 439.285,194.453 L387.075,173.928 C385.995,173.567 385.635,172.487 385.995,171.407 z M386.355,184.01 C386.715,182.93 387.795,182.57 388.875,182.93 L441.085,203.456 C442.165,203.816 442.526,204.896 442.165,205.976 C441.805,207.057 440.725,207.417 439.645,207.057 L387.435,186.531 C386.355,186.171 385.995,185.091 386.355,184.01 z M442.526,218.22 C442.165,219.3 441.085,219.66 440.005,219.3 L387.795,199.134 C386.715,198.774 386.355,197.694 386.715,196.614 C387.075,195.533 388.155,195.173 389.235,195.533 L441.445,215.699 C442.526,216.059 442.886,217.139 442.526,218.22 z" fill="#B7B9BB"/>
    <path d="M463.41,7.562 C456.208,4.681 453.328,3.601 428.843,5.762 C389.595,9.363 379.153,12.243 376.633,14.044 C382.394,18.005 446.126,45.372 495.816,66.258 L495.816,66.258 C506.978,68.779 572.151,58.336 586.553,52.574 L465.57,9.002 L462.689,7.922 z" fill="#EFEFF0"/>
    <path d="M595.195,293.12 C596.635,293.12 598.436,290.239 598.436,286.278 C598.436,283.397 597.355,281.597 596.635,281.237 C596.275,280.877 595.555,280.877 595.555,280.877 C594.115,280.877 592.314,283.758 592.314,287.719 L592.314,287.719 C592.314,290.599 593.395,292.4 594.115,292.76 C594.475,293.12 595.195,293.12 595.195,293.12 z" fill="#DCDDDF"/>
    <path d="M606.357,73.1 C605.637,73.46 604.917,73.46 604.197,73.82 L606.357,73.82 L606.357,73.1 z" fill="#DCDDDF"/>
    <path d="M602.396,303.203 L602.396,121.353 L581.152,125.674 L581.872,315.806 C587.273,314.006 591.954,312.925 594.475,312.205 C601.316,310.045 602.756,303.203 602.756,303.203 z M587.994,287.358 C587.994,281.597 590.874,276.916 594.835,276.556 C596.275,276.195 597.716,276.916 599.156,277.996 C600.956,279.796 602.396,282.677 602.396,286.278 C602.396,292.04 599.516,296.721 595.555,297.081 C594.115,297.441 592.675,296.721 591.234,295.641 C589.434,293.84 587.994,290.959 587.994,287.358 z" fill="#DCDDDF"/>
    <path d="M521.021,333.451 C521.021,333.451 554.867,323.728 577.552,317.247 L577.192,126.395 L511.659,139.718 L513.099,329.49 C515.98,333.091 521.021,333.451 521.021,333.451 z M540.104,312.925 L525.341,318.327 L525.341,314.366 L540.104,308.964 L540.104,312.925 z M540.104,299.962 L540.104,303.923 L524.981,309.324 L524.981,305.363 L539.744,299.962 z" fill="#DCDDDF"/>
    <path d="M602.756,114.511 L602.756,95.066 L511.299,112.711 L511.659,133.236 z" fill="#DCDDDF"/>
    <path d="M602.756,87.504 L602.756,73.82 C589.434,77.421 556.307,85.703 511.299,90.385 L511.299,104.789 L602.756,87.144 z" fill="#DCDDDF"/>
    <path d="M540.104,303.923 L540.104,299.962 L524.981,305.363 L524.981,309.685 z" fill="#373435"/>
    <path d="M524.981,314.366 L524.981,318.327 L540.104,312.925 L540.104,308.964 z" fill="#373435"/>
    <path d="M595.555,297.081 C599.516,296.721 602.396,291.68 602.396,286.278 C602.396,282.677 601.316,279.796 599.156,277.996 C597.715,276.916 596.275,276.556 594.835,276.556 C590.874,276.916 587.994,281.957 587.994,287.358 C587.994,290.959 589.074,293.84 591.234,295.641 C592.314,296.721 594.115,297.081 595.555,297.081 z M592.314,287.358 C592.314,283.397 594.115,280.517 595.555,280.517 C595.555,280.517 595.915,280.517 596.635,280.877 C597.355,281.597 598.436,283.397 598.436,285.918 C598.436,289.879 596.635,292.76 595.195,292.76 C595.195,292.76 594.475,292.76 594.115,292.4 C593.395,291.68 592.314,289.879 592.314,287.358 z" fill="#373435"/>
    <path d="M386.715,173.928 L438.925,194.453 C440.005,194.813 441.085,194.453 441.445,193.373 C441.805,192.293 441.445,191.212 440.365,190.852 L388.155,170.327 C387.075,169.966 385.995,170.327 385.635,171.407 C385.274,172.487 385.635,173.567 386.715,173.928 z" fill="#373435"/>
    <path d="M387.075,186.531 L439.285,207.057 C440.365,207.417 441.445,207.057 441.805,205.976 C442.165,204.896 441.805,203.816 440.725,203.456 L388.515,182.93 C387.435,182.57 386.355,182.93 385.995,184.01 C385.635,185.091 385.995,186.171 387.075,186.531 z" fill="#373435"/>
    <path d="M441.085,215.339 L388.875,195.173 C387.795,194.813 386.715,195.173 386.355,196.254 C385.995,197.334 386.355,198.414 387.435,198.774 L439.645,218.94 C440.725,219.3 441.805,218.94 442.165,217.86 C442.526,216.779 442.165,215.699 441.085,215.339 z" fill="#373435"/>
    <path d="M593.395,52.574 C589.074,60.857 523.541,69.499 501.577,70.219 C508.778,76.701 510.579,83.183 510.939,86.784 C569.63,80.662 607.797,68.419 607.797,68.419 C608.878,68.059 609.238,67.338 609.238,65.898 L609.238,64.818 C608.157,60.136 602.036,54.015 593.395,52.574 z" fill="#EFEFF0"/>
    <path d="M603.837,313.286 C605.277,312.925 606.357,311.845 606.357,310.045 L606.357,120.633 L602.396,121.353 L602.396,303.203 C602.396,303.203 600.956,310.045 594.115,312.205 C591.594,312.925 586.913,314.366 581.512,315.806 L581.512,319.047 L603.837,312.925 z" fill="#DCDDDF"/>
    <path d="M606.357,120.633 L602.396,121.353 L602.396,303.203 L602.396,303.203 C602.396,303.203 600.956,310.045 594.115,312.205 C591.594,312.925 586.913,314.366 581.512,315.806 L581.512,319.047 L603.837,312.925 C605.277,312.565 606.357,311.485 606.357,309.685 L606.357,120.273 z" fill="#A7A9AB"/>
    <path d="M513.099,335.972 C513.099,336.692 513.459,337.052 513.819,337.412 C514.179,337.772 514.9,338.132 515.26,337.772 L579.712,319.407 L577.552,319.407 L577.552,316.526 C555.227,323.008 521.021,332.731 521.021,332.731 C521.021,332.731 515.98,332.731 513.099,328.77 L513.099,334.891 z" fill="#DCDDDF"/>
    <path d="M577.552,317.247 C555.227,323.728 521.021,333.451 521.021,333.451 C521.021,333.451 515.98,333.451 513.099,329.49 L513.099,329.49 C515.98,333.091 521.021,333.451 521.021,333.451 C521.021,333.451 554.867,323.728 577.552,317.247 L577.552,317.247 z" fill="#A7A9AB"/>
    <path d="M577.552,317.247 L577.552,317.247 C555.227,323.728 521.021,333.451 521.021,333.451 C521.021,333.451 515.98,333.451 513.099,329.49 L513.099,335.612 C513.099,336.332 513.459,336.692 513.819,337.052 C514.179,337.412 514.9,337.772 515.26,337.772 C515.26,337.772 515.26,337.772 515.26,337.772 L515.26,337.772 L579.712,319.407 L577.552,319.407 L577.552,316.526 z" fill="#A7A9AB"/>
    <path d="M608.158,118.112 L602.396,121.353 L602.396,121.353 L606.357,120.633 L606.357,310.045 C606.357,311.485 605.277,312.926 603.837,313.286 L581.512,319.407 L581.512,316.166 C580.072,316.526 578.632,316.887 577.552,317.247 L577.552,320.127 L579.712,320.127 L515.26,338.492 C514.899,338.492 514.179,338.492 513.819,338.132 C513.459,337.772 513.099,337.412 513.099,336.692 L513.099,330.57 C511.659,328.77 510.579,326.609 510.579,323.008 C509.498,337.772 513.819,342.454 522.101,339.573 C530.383,336.692 603.477,314.726 603.477,314.726 C603.477,314.726 608.878,315.086 608.878,303.203 C608.878,291.32 607.797,118.832 607.797,118.832 z" fill="#373435"/>
    <path d="M581.512,316.166 C580.072,316.526 578.632,316.887 577.552,317.247 L577.552,317.247 C578.992,316.887 580.432,316.526 581.512,316.166 L581.512,316.166 z" fill="#373435"/>
    <path d="M581.512,316.166 L581.512,316.166 L581.512,316.166 z" fill="#A7A9AB"/>
    <path d="M581.512,316.166 L581.512,316.166" fill="#86888B"/>
    <path d="M606.357,310.045 C606.357,311.485 605.277,312.925 603.837,313.286 L581.512,319.407 L581.512,316.166 L581.512,319.407 L603.837,313.286 C605.277,312.925 606.357,311.845 606.357,310.045 L606.357,310.045 z" fill="#86888B"/>
    <path d="M510.939,322.648 L510.939,322.648 C510.939,325.889 512.019,328.05 513.459,329.85 L513.459,329.85 C512.019,328.41 510.939,325.889 510.939,322.648 z" fill="#373435"/>
    <path d="M513.099,329.85 L513.099,329.85 L513.099,329.85 z" fill="#A7A9AB"/>
    <path d="M608.158,118.112 L602.396,121.353 L602.396,121.353 L606.357,120.633 L606.357,310.045 L606.357,310.045 C606.357,311.485 605.277,312.925 603.837,313.286 L581.512,319.407 L581.512,316.166 C580.072,316.526 578.632,316.887 577.552,317.247 L577.552,320.127 L579.712,320.127 L515.26,338.492 C515.26,338.492 515.26,338.492 515.26,338.492 C514.899,338.492 514.179,338.132 513.819,337.772 C513.459,337.412 513.099,337.052 513.099,336.332 L513.099,330.21 L513.099,330.21 C511.659,328.77 510.579,326.249 510.579,323.008 L510.579,323.008 C510.579,322.648 510.579,322.648 510.579,322.288 C510.579,323.728 510.579,325.169 510.579,326.609 C510.579,335.612 513.099,339.933 518.14,339.933 C519.58,339.933 520.661,339.573 522.461,339.213 C530.743,336.332 603.837,314.366 603.837,314.366 C603.837,314.366 603.837,314.366 603.837,314.366 C604.557,314.366 609.238,314.006 609.238,302.843 C609.238,290.959 608.158,118.472 608.158,118.472 z" fill="#373435"/>
    <path d="M606.357,90.025 L606.357,73.46 L604.197,73.46 C603.837,73.46 603.117,73.82 602.756,73.82 L602.756,87.504 L511.299,105.149 L511.299,108.39 L606.357,90.025 z" fill="#DCDDDF"/>
    <path d="M606.357,73.82 L606.357,73.82" fill="#373435"/>
    <path d="M604.197,73.46 L604.197,73.46 L606.357,73.82 z" fill="#A7A9AB"/>
    <path d="M604.197,73.46 C603.837,73.46 603.117,73.82 602.756,73.82 L602.756,87.504 L511.299,105.149 L511.299,108.39 L606.357,90.025 L606.357,73.46 L604.197,73.46 z" fill="#A7A9AB"/>
    <path d="M606.357,73.82 L606.357,90.025 L511.299,108.39 L511.299,105.149 L509.138,105.509 L509.138,109.83 L607.077,91.105 L607.077,73.82 z" fill="#373435"/>
    <path d="M511.299,105.149 L509.138,105.509 z" fill="#373435"/>
    <path d="M511.299,105.149 L511.299,105.149" fill="#A7A9AB"/>
    <path d="M606.357,90.025 L511.299,108.39 L511.299,105.149 L511.299,108.39 z" fill="#86888B"/>
    <path d="M606.357,73.82 L606.357,90.025 L511.299,108.39 L511.299,105.149 L509.138,105.509 L509.138,109.83 L607.077,91.105 L607.077,73.82 z" fill="#373435"/>
    <path d="M602.756,73.46 L602.756,74.18 C603.477,74.18 603.837,73.82 604.197,73.82 L602.756,73.82 z" fill="#373435"/>
    <path d="M602.756,73.46 L602.756,74.18 C603.477,74.18 603.837,73.82 604.197,73.82 L602.756,73.82 z" fill="#373435"/>
    <path d="M606.357,116.312 L606.357,94.346 L602.756,95.066 L602.756,114.511 L511.659,133.236 L511.659,135.757 z" fill="#DCDDDF"/>
    <path d="M606.357,94.346 L602.756,95.066 L602.756,114.511 L511.659,133.236 L511.659,135.757 L606.357,116.312 z" fill="#A7A9AB"/>
    <path d="M602.756,93.986 L602.756,95.066 L606.357,94.346 L606.357,116.312 L511.659,135.757 L511.659,133.236 L509.498,133.596 L509.498,137.558 L607.077,117.752 L607.077,92.905 z" fill="#373435"/>
    <path d="M511.659,133.236 L509.498,133.596 z" fill="#373435"/>
    <path d="M511.659,133.236 L511.659,133.236" fill="#A7A9AB"/>
    <path d="M511.659,133.236 L511.659,133.236" fill="#86888B"/>
    <path d="M606.357,116.312 L511.659,135.757 L511.659,133.236 L511.659,135.757 z" fill="#86888B"/>
    <path d="M607.077,92.905 L602.756,93.986 L602.756,95.066 L606.357,94.346 L606.357,116.312 L511.659,135.757 L511.659,133.236 L509.498,133.596 L509.498,137.558 L607.077,117.752 z" fill="#373435"/>
    <path d="M469.171,366.22 C470.251,365.14 471.331,364.42 472.411,363.339 C469.171,362.259 467.37,361.539 466.65,360.819 L465.93,360.458 C465.21,360.819 463.77,361.179 462.329,361.899 C463.41,363.699 465.57,365.14 468.811,366.22 z" fill="#DCDDDF"/>
    <path d="M436.764,328.05 C474.572,329.85 490.775,337.052 491.855,341.733 L492.215,342.454 L491.855,343.174 C491.135,344.614 487.894,346.775 481.413,348.215 C478.532,348.935 475.652,349.656 473.491,350.376 L473.491,350.736 C473.491,352.176 472.771,353.617 472.051,354.697 C474.572,353.617 477.812,352.536 482.133,351.456 C488.254,350.016 495.816,347.135 495.816,341.733 L495.816,341.013 C494.736,333.091 473.491,324.449 428.483,323.368 L437.124,327.329 z" fill="#DCDDDF"/>
    <path d="M512.739,361.179 C503.737,361.539 491.855,364.78 483.934,372.342 C478.533,377.383 475.652,383.505 475.292,390.347 C484.294,394.308 498.336,396.108 511.299,396.108 C536.504,388.906 531.463,371.261 512.739,361.179 z" fill="#DCDDDF"/>
    <path d="M477.452,364.78 C470.971,368.381 467.01,373.422 466.65,378.823 L466.65,379.184 L466.65,379.544 C466.29,380.624 465.21,384.225 471.331,388.186 C472.051,380.984 475.292,374.502 481.053,369.101 C485.374,364.78 491.495,361.539 497.976,359.378 C490.055,359.738 482.853,361.899 477.452,364.78 z" fill="#DCDDDF"/>
    <path d="M540.464,385.665 C540.464,380.624 537.944,371.982 523.181,364.78 C519.94,362.979 516.7,361.899 513.099,361.179 L512.739,361.179 C531.463,371.261 536.504,388.906 511.299,396.108 C523.541,395.748 534.703,393.587 540.104,389.626 C540.464,388.906 540.464,387.826 540.464,386.025 z" fill="#DCDDDF"/>
    <path d="M513.099,361.179 L512.739,361.179 C522.461,366.22 528.222,373.422 528.582,380.264 C528.582,386.746 523.541,392.507 511.299,396.108 C523.541,395.748 534.703,393.587 540.104,389.626 C540.464,388.906 540.464,387.826 540.464,386.025 C540.464,380.984 537.944,372.342 523.181,365.14 C519.94,363.339 516.7,362.259 513.099,361.539 z" fill="#A7A9AB"/>
    <path d="M506.258,357.938 C508.778,359.018 510.939,359.738 513.099,361.179 L513.459,361.179 C517.06,361.899 520.301,362.979 523.541,364.78 C538.304,372.342 540.825,380.984 540.825,385.665 C540.825,387.466 540.464,388.906 540.464,389.266 C535.423,393.227 523.901,395.388 511.659,395.748 C509.138,396.468 506.258,397.189 503.017,397.549 C532.903,400.069 545.865,389.266 542.985,381.704 C540.104,374.142 522.101,357.578 506.618,357.938 z" fill="#373435"/>
    <path d="M539.384,377.023 L539.384,377.023 C540.824,378.823 541.905,380.624 542.625,382.064 C542.985,382.785 542.985,383.505 542.985,383.865 C542.985,383.145 542.985,382.424 542.625,382.064 C541.905,380.624 541.185,378.823 539.384,377.023 z M533.263,370.541 L533.263,370.541 C533.983,371.261 534.703,371.982 535.423,372.702 L535.423,372.702 C534.703,371.982 533.983,371.261 533.263,370.541 z M505.898,357.938 L505.898,357.938 z M506.258,357.938 L506.258,357.938 C512.379,357.938 519.22,360.819 524.981,364.42 L524.981,364.42 C519.22,360.819 512.379,357.938 506.258,357.938 z" fill="#373435"/>
    <path d="M540.464,385.665 C540.464,387.466 540.104,388.906 540.104,389.266 C535.063,393.227 523.541,395.388 511.299,395.748 L511.299,395.748 C523.541,395.388 534.703,393.227 540.104,389.266 C540.464,388.546 540.464,387.466 540.464,385.665 L540.464,385.665 z" fill="#86888B"/>
    <path d="M506.618,357.938 L506.618,357.938 C506.618,357.938 506.258,357.938 506.258,357.938 C508.778,359.018 510.939,359.738 513.099,361.179 L513.459,361.179 C517.06,361.899 520.301,362.979 523.541,364.78 C538.304,372.342 540.825,380.984 540.825,385.665 L540.825,385.665 C540.825,387.466 540.464,388.906 540.464,389.266 C535.423,393.227 523.901,395.388 511.659,395.748 L511.659,395.748 C509.138,396.468 506.258,397.189 503.017,397.549 C505.898,397.909 508.778,397.909 511.659,397.909 C533.263,397.909 543.705,389.987 543.345,383.505 C543.345,382.785 543.345,382.064 542.985,381.704 C542.265,380.264 541.545,378.463 539.744,376.663 C538.664,375.223 537.224,373.782 535.784,372.342 C535.063,371.622 534.343,370.901 533.623,370.181 C531.103,368.021 528.582,365.86 525.341,364.059 C519.58,360.458 512.739,357.578 506.618,357.578 z" fill="#373435"/>
    <path d="M257.09,286.278 C257.09,286.278 272.933,279.796 291.296,272.234 L167.792,290.96 C185.076,293.12 200.919,294.921 200.919,294.921 L257.09,286.278 z" fill="#919395"/>
    <path d="M55.091,257.47 C47.889,223.981 14.043,45.372 13.323,42.132 C12.963,41.411 12.242,39.971 12.242,37.09 C12.242,36.73 12.242,36.01 12.602,35.29 C10.802,36.37 9.722,37.81 9.002,38.891 C7.201,42.132 9.002,45.372 9.002,45.372 L9.002,45.732 L9.002,46.093 C9.362,47.893 43.568,227.222 50.77,260.711 C57.971,294.921 60.132,302.123 71.294,301.042 L73.454,300.682 C63.372,298.161 60.852,285.558 54.731,257.11 z" fill="#B7B9BB"/>
    <path d="M17.283,34.209 C15.483,37.45 17.283,40.691 17.283,40.691 L17.283,41.051 L17.283,41.411 C17.643,43.212 51.85,223.261 59.051,256.75 C66.253,291.32 68.413,298.522 79.575,297.441 L382.754,251.349 C386.355,250.989 388.875,249.548 389.955,247.748 C392.476,243.426 389.235,236.585 388.875,235.864 C387.075,227.582 342.786,35.29 339.186,15.844 C338.465,11.523 336.305,8.282 333.424,6.482 C326.583,2.521 316.141,6.122 316.141,6.122 L315.781,6.122 L315.421,6.122 C312.9,6.122 61.932,22.686 34.567,26.287 C22.324,27.728 18.003,31.689 16.563,34.209 z M37.447,49.694 C37.447,49.333 37.087,48.613 36.727,47.893 L36.367,48.253 L36.367,45.012 L36.367,45.012 L36.367,43.572 L36.367,43.572 C37.087,38.891 41.768,33.489 56.531,31.689 C81.376,28.808 303.539,15.484 305.699,15.484 C306.419,15.484 327.303,14.044 330.544,27.367 C333.424,43.932 373.032,216.419 374.112,220.02 C374.472,220.74 375.913,223.981 375.913,227.942 C375.913,229.743 375.553,231.543 374.832,233.344 C373.392,236.225 370.512,237.665 366.911,238.385 L366.911,238.385 L365.831,238.745 L362.95,239.105 L362.95,239.105 L145.828,274.035 L142.227,274.755 L141.867,274.755 L97.939,281.957 C83.536,283.397 81.376,273.315 75.255,242.706 C68.773,212.818 38.527,53.655 38.167,50.414 z" fill="#B7B9BB"/>
    <path d="M383.474,255.31 L383.474,255.31 L383.474,255.31 z" fill="#373435"/>
    <path d="M57.251,35.65 C49.33,36.73 44.289,38.531 41.768,41.771 C43.928,41.051 46.449,40.691 49.33,40.331 C49.69,40.331 50.41,40.331 51.13,39.971 L51.85,39.971 C52.21,39.971 52.57,39.971 53.29,39.971 C79.935,37.45 189.397,30.968 254.929,27.367 L254.929,27.367 C254.929,27.367 255.649,27.367 256.73,27.367 L263.571,27.007 L263.571,27.007 C283.375,25.927 296.697,25.207 297.057,25.207 C297.778,25.207 318.302,23.766 321.542,37.09 C321.542,37.45 321.902,38.17 321.902,39.251 L321.902,39.611 C322.262,41.051 322.622,43.212 323.342,45.732 L323.342,46.453 C324.063,48.973 324.423,51.854 325.143,55.095 C325.143,55.815 325.503,56.535 325.503,57.256 C325.863,58.336 325.863,59.416 326.223,60.857 L326.223,60.857 C326.943,64.818 328.023,69.139 329.104,73.46 C341.346,128.915 364.03,225.782 364.39,228.662 L364.39,228.662 L364.39,229.023 C364.75,229.743 365.471,231.543 365.831,234.064 C367.991,233.704 369.791,232.624 370.512,231.183 C370.872,230.103 371.232,229.023 371.232,227.942 C371.232,225.422 370.152,222.541 369.791,221.46 L369.791,221.1 L369.791,220.74 C367.991,213.538 329.104,44.652 326.223,28.088 C323.703,18.365 306.059,19.445 305.699,19.445 C303.539,19.445 81.376,32.769 56.891,35.65 z" fill="#A3A5A8"/>
    <path d="M41.048,48.613 L41.048,48.973 C41.408,50.414 72.014,211.018 78.135,241.266 C84.616,271.874 86.417,278.356 96.499,277.276 C96.499,277.276 136.466,270.794 140.427,270.074 L140.427,270.074 L101.18,276.195 C87.497,277.636 85.336,267.913 79.215,238.385 C73.094,209.577 43.928,56.175 43.568,53.295 C43.208,52.574 42.488,51.134 42.488,48.973 C42.488,47.893 42.848,46.813 43.208,45.372 C42.488,45.732 41.408,45.732 40.688,46.093 C41.048,47.173 41.048,47.893 41.048,47.893 L41.048,48.253 z" fill="#B7B9BB"/>
    <path d="M41.048,48.613 L41.048,48.973 C41.408,50.414 72.014,211.018 78.135,241.266 C84.616,271.874 86.417,278.356 96.499,277.276 C96.499,277.276 136.466,270.794 140.427,270.074 L140.427,270.074 L101.18,276.195 C87.497,277.636 85.336,267.913 79.215,238.385 C73.094,209.577 43.928,56.175 43.568,53.295 C43.208,52.574 42.488,51.134 42.488,48.973 C42.488,47.893 42.848,46.813 43.208,45.372 C42.488,45.732 41.408,45.732 40.688,46.093 C41.048,47.173 41.048,47.893 41.048,47.893 L41.048,48.253 z" fill="url(#Gradient_1)"/>
    <path d="M47.169,46.453 C45.729,48.973 47.169,51.494 47.169,51.854 L47.169,52.214 L47.169,52.574 C47.529,54.015 76.695,208.857 82.816,237.665 C88.937,267.193 90.738,273.315 100.459,272.234 L139.707,266.113 C137.547,254.95 136.466,243.426 136.106,232.263 C136.106,230.463 136.106,229.023 136.106,227.222 L136.106,227.222 L136.106,226.502 C136.106,223.261 136.106,220.02 136.466,217.139 C136.466,216.059 136.466,214.979 136.466,214.259 C136.466,211.738 136.826,209.217 137.187,206.696 C137.187,205.616 137.187,204.896 137.547,203.816 C137.907,200.575 138.267,197.334 138.987,193.733 L138.987,193.373 C139.347,190.132 140.067,186.891 140.787,184.01 C141.147,182.93 141.147,182.21 141.507,181.129 C142.227,178.609 142.588,176.088 143.308,173.928 C143.668,172.847 143.668,172.127 144.028,171.047 C144.748,167.806 145.828,164.565 146.908,161.324 L146.908,161.324 C147.989,158.083 149.069,155.202 150.149,151.962 C150.509,151.241 150.869,150.161 151.229,149.441 C152.309,146.92 153.03,144.76 154.11,142.599 C154.47,141.879 154.83,140.798 155.19,140.078 C158.071,133.957 160.951,128.195 164.552,122.073 C164.912,121.353 165.632,120.273 165.992,119.553 C167.432,117.392 168.513,115.231 169.953,113.071 C170.313,112.351 171.033,111.27 171.393,110.55 C173.193,107.669 175.354,105.149 177.154,102.268 L177.154,102.268 C179.315,99.747 181.475,96.866 183.635,93.986 C199.479,74.18 221.443,49.694 248.088,31.329 C184.716,34.93 78.855,41.411 53.29,43.572 L52.21,43.572 L51.49,43.572 C50.77,43.572 50.41,43.572 50.05,43.572 L48.969,43.572 C48.249,44.292 47.529,45.012 47.169,45.732 z" fill="#FEFEFE"/>
    <path d="M47.169,46.453 C45.729,48.973 47.169,51.494 47.169,51.854 L47.169,52.214 L47.169,52.574 C47.529,54.015 76.695,208.857 82.816,237.665 C88.937,267.193 90.738,273.315 100.459,272.234 L139.707,266.113 C137.547,254.95 136.466,243.426 136.106,232.263 C136.106,230.463 136.106,229.023 136.106,227.222 L136.106,227.222 L136.106,226.502 C136.106,223.261 136.106,220.02 136.466,217.139 C136.466,216.059 136.466,214.979 136.466,214.259 C136.466,211.738 136.826,209.217 137.187,206.696 C137.187,205.616 137.187,204.896 137.547,203.816 C137.907,200.575 138.267,197.334 138.987,193.733 L138.987,193.373 C139.347,190.132 140.067,186.891 140.787,184.01 C141.147,182.93 141.147,182.21 141.507,181.129 C142.227,178.609 142.588,176.088 143.308,173.928 C143.668,172.847 143.668,172.127 144.028,171.047 C144.748,167.806 145.828,164.565 146.908,161.324 L146.908,161.324 C147.989,158.083 149.069,155.202 150.149,151.962 C150.509,151.241 150.869,150.161 151.229,149.441 C152.309,146.92 153.03,144.76 154.11,142.599 C154.47,141.879 154.83,140.798 155.19,140.078 C158.071,133.957 160.951,128.195 164.552,122.073 C164.912,121.353 165.632,120.273 165.992,119.553 C167.432,117.392 168.513,115.231 169.953,113.071 C170.313,112.351 171.033,111.27 171.393,110.55 C173.193,107.669 175.354,105.149 177.154,102.268 L177.154,102.268 C179.315,99.747 181.475,96.866 183.635,93.986 C199.479,74.18 221.443,49.694 248.088,31.329 C184.716,34.93 78.855,41.411 53.29,43.572 L52.21,43.572 L51.49,43.572 C50.77,43.572 50.41,43.572 50.05,43.572 L48.969,43.572 C48.249,44.292 47.529,45.012 47.169,45.732 z" fill="url(#Gradient_2)"/>
    <path d="M43.568,53.295 C44.289,56.175 73.094,209.577 79.215,238.385 C85.336,267.913 87.497,277.636 101.18,276.195 L140.427,270.074 C140.067,268.633 140.067,267.553 139.707,266.113 L100.459,272.234 C90.738,273.315 89.297,267.193 82.816,237.665 C76.695,208.857 47.169,54.015 47.169,52.574 L47.169,52.214 L47.169,51.854 C47.169,51.854 45.729,49.333 47.169,46.453 C47.529,45.732 47.889,45.012 48.969,44.292 C46.809,44.652 45.009,45.012 43.208,45.372 C42.848,46.453 42.488,47.893 42.488,48.973 C42.488,51.134 43.208,52.574 43.568,53.295 z" fill="#373435"/>
    <path d="M43.568,53.295 C44.289,56.175 73.094,209.577 79.215,238.385 C85.336,267.913 87.497,277.636 101.18,276.195 L140.427,270.074 C140.067,268.633 140.067,267.553 139.707,266.113 L100.459,272.234 C90.738,273.315 89.297,267.193 82.816,237.665 C76.695,208.857 47.169,54.015 47.169,52.574 L47.169,52.214 L47.169,51.854 C47.169,51.854 45.729,49.333 47.169,46.453 C47.529,45.732 47.889,45.012 48.969,44.292 C46.809,44.652 45.009,45.012 43.208,45.372 C42.848,46.453 42.488,47.893 42.488,48.973 C42.488,51.134 43.208,52.574 43.568,53.295 z" fill="url(#Gradient_3)"/>
    <path d="M248.088,31.689 C181.835,35.65 78.855,41.771 53.29,43.932 C78.855,41.411 184.356,35.29 248.088,31.689 z" fill="#373435"/>
    <path d="M248.088,31.689 C181.835,35.65 78.855,41.771 53.29,43.932 C78.855,41.411 184.356,35.29 248.088,31.689 z" fill="url(#Gradient_4)"/>
    <path d="M51.49,43.932 L52.21,43.932 z" fill="#373435"/>
    <path d="M51.49,43.932 L52.21,43.932 z" fill="url(#Gradient_5)"/>
    <path d="M97.219,280.877 L141.147,273.675 L141.507,273.675 L145.108,272.955 L362.23,238.025 L362.23,238.025 L365.111,237.665 L366.191,237.305 L366.191,237.305 C369.791,236.585 372.672,235.144 374.112,232.263 C375.193,230.463 375.193,228.662 375.193,226.862 C375.193,222.901 373.752,219.66 373.392,218.94 C372.672,215.339 332.704,43.212 329.824,26.287 C326.583,12.964 306.059,14.404 304.979,14.404 C302.819,14.404 80.656,27.728 55.811,30.608 C40.688,32.409 36.367,37.81 35.647,42.492 L35.647,42.492 L35.647,43.932 L35.647,43.932 L35.647,47.173 L36.007,46.813 C36.367,47.533 36.367,48.253 36.727,48.613 C37.447,51.494 67.693,211.018 73.814,240.906 C80.296,271.154 82.456,281.597 96.499,280.157 z M326.583,27.728 C329.464,44.652 368.351,213.178 370.152,220.38 L370.152,220.74 L370.152,221.1 C370.872,222.181 371.592,225.061 371.592,227.582 C371.592,228.662 371.232,229.743 370.872,230.823 C370.152,232.263 368.351,232.984 366.191,233.704 C365.831,231.183 365.111,229.383 364.75,228.662 L364.75,228.302 L364.75,228.302 C364.03,225.782 341.706,128.555 329.464,73.1 C328.383,68.419 327.663,64.098 326.583,60.497 L326.583,60.497 C326.223,59.416 326.223,57.976 325.863,56.896 C325.863,56.175 325.503,55.455 325.503,54.735 C324.783,51.494 324.063,48.613 323.703,46.093 L323.703,45.372 C323.342,42.852 322.622,40.691 322.262,39.251 L322.262,38.891 C322.262,38.17 321.902,37.45 321.902,36.73 C318.662,23.406 298.138,24.847 297.417,24.847 C297.057,24.847 283.735,25.567 263.931,26.647 L263.931,26.647 L257.09,27.007 C256.009,27.007 255.289,27.007 255.289,27.007 L255.289,27.007 C189.757,30.608 80.296,37.09 53.65,39.611 C53.29,39.611 52.93,39.611 52.21,39.611 L51.49,39.611 C50.77,39.611 50.41,39.611 49.69,39.971 C46.809,40.331 44.289,40.691 42.128,41.411 C44.289,38.531 49.69,36.37 57.611,35.29 C82.456,32.409 304.259,19.085 306.419,19.085 C306.779,19.085 324.423,17.645 326.943,27.728 z M144.748,268.993 L144.748,268.993 C144.388,267.553 144.388,266.473 144.028,265.032 C141.867,252.429 140.427,239.826 140.427,226.862 C140.427,221.46 140.787,215.699 141.147,210.297 C143.668,180.049 152.309,151.241 167.432,124.954 C168.152,123.874 168.873,122.794 169.593,121.353 C170.313,120.273 171.033,118.832 171.753,117.752 C174.634,113.071 177.874,108.75 181.115,104.068 C183.275,101.188 185.436,98.307 187.956,95.426 C204.52,74.54 228.284,48.253 256.73,30.248 C257.81,30.248 297.778,27.728 297.778,27.728 C298.138,27.728 315.781,26.647 318.301,36.37 C321.182,52.934 360.07,221.1 361.51,228.302 L361.51,228.662 L361.51,229.023 L361.87,229.743 C362.23,230.463 362.59,231.903 362.95,233.704 L362.95,233.704 L362.95,233.704 C359.349,234.424 149.069,267.913 145.468,268.633 z M43.208,45.372 C45.009,45.012 46.809,44.652 48.969,44.292 L50.05,44.292 C50.41,44.292 51.13,44.292 51.49,44.292 L52.21,44.292 L53.29,44.292 C78.495,41.771 181.835,35.65 248.088,32.049 C221.443,50.054 199.479,74.9 183.635,94.706 C181.475,97.587 179.315,100.107 177.154,102.988 L177.154,102.988 C174.994,105.509 173.193,108.39 171.393,111.27 C170.673,111.991 170.313,112.711 169.953,113.791 C168.513,115.952 167.072,118.112 165.992,120.273 C165.632,120.993 164.912,122.073 164.552,122.794 C161.311,128.555 158.071,134.677 155.19,140.798 C154.83,141.519 154.47,142.599 154.11,143.319 C153.03,145.48 151.949,148 151.229,150.161 C150.869,150.881 150.509,151.962 150.149,152.682 C149.069,155.923 147.989,158.803 146.908,162.044 L146.908,162.044 C145.828,165.285 144.748,168.526 144.028,171.767 C143.668,172.847 143.668,173.567 143.308,174.648 C142.588,177.168 142.227,179.329 141.507,181.85 C141.147,182.93 141.147,183.65 140.787,184.73 C140.067,187.971 139.347,191.212 138.987,194.093 L138.987,194.453 C138.627,197.694 137.907,200.935 137.547,204.536 C137.547,205.616 137.187,206.336 137.187,207.417 C136.826,209.937 136.826,212.458 136.466,214.979 C136.466,216.059 136.466,217.139 136.466,217.86 C136.466,221.1 136.106,224.341 136.106,227.222 L136.106,227.942 L136.106,227.942 C136.106,229.743 136.106,231.183 136.106,232.984 C136.466,244.147 137.547,255.31 139.707,266.833 C140.067,268.273 140.067,269.354 140.427,270.794 L140.427,270.794 C136.466,271.514 96.499,277.996 96.499,277.996 C86.417,279.076 84.616,272.594 78.135,241.986 C71.654,212.098 41.408,51.494 41.048,49.694 L41.048,49.333 L41.048,48.973 C41.048,48.973 40.688,48.253 40.688,47.173 C41.408,46.813 42.488,46.813 43.208,46.453 z" fill="#373435"/>
    <path d="M362.23,234.424 L362.23,234.424 C361.51,234.784 360.43,234.784 359.349,235.144 L359.349,235.144 L144.388,269.714 L144.388,269.714 C148.349,268.993 358.269,235.504 361.87,234.784 L361.87,234.784 z" fill="#B7B9BB"/>
    <path d="M362.23,234.424 L362.23,234.424 C361.51,234.784 360.43,234.784 359.349,235.144 L359.349,235.144 L144.388,269.714 L144.388,269.714 C148.349,268.993 358.269,235.504 361.87,234.784 L361.87,234.784 z" fill="url(#Gradient_6)"/>
    <path d="M361.15,230.103 L360.79,229.383 L360.79,229.023 L360.79,228.662 C358.989,221.46 320.462,53.295 317.581,36.73 C315.061,27.007 297.417,28.088 297.057,28.088 C297.057,28.088 257.09,30.248 256.009,30.608 C227.564,48.613 204.159,74.9 187.236,95.786 C184.716,98.667 182.555,101.548 180.395,104.429 C177.154,108.75 173.914,113.431 171.033,118.112 C170.313,119.193 169.593,120.633 168.873,121.713 C168.152,122.794 167.432,123.874 166.712,125.314 C151.949,151.241 142.948,180.409 140.427,210.658 C140.067,216.059 139.707,221.46 139.707,227.222 C139.707,239.826 141.147,252.429 143.308,265.392 L358.629,230.823 C359.349,230.823 360.07,230.463 360.79,230.463 z" fill="#FEFEFE"/>
    <path d="M361.15,230.103 L360.79,229.383 L360.79,229.023 L360.79,228.662 C358.989,221.46 320.462,53.295 317.581,36.73 C315.061,27.007 297.417,28.088 297.057,28.088 C297.057,28.088 257.09,30.248 256.009,30.608 C227.564,48.613 204.159,74.9 187.236,95.786 C184.716,98.667 182.555,101.548 180.395,104.429 C177.154,108.75 173.914,113.431 171.033,118.112 C170.313,119.193 169.593,120.633 168.873,121.713 C168.152,122.794 167.432,123.874 166.712,125.314 C151.949,151.241 142.948,180.409 140.427,210.658 C140.067,216.059 139.707,221.46 139.707,227.222 C139.707,239.826 141.147,252.429 143.308,265.392 L358.629,230.823 C359.349,230.823 360.07,230.463 360.79,230.463 z" fill="url(#Gradient_7)"/>
    <path d="M359.71,234.784 C360.79,234.784 361.51,234.424 362.59,234.064 C362.23,232.263 361.87,230.823 361.51,230.103 C360.79,230.103 360.07,230.463 359.349,230.463 L144.028,265.032 C144.388,266.473 144.388,267.553 144.748,268.993 L359.71,234.424 L359.71,234.424 z" fill="#373435"/>
    <path d="M359.71,234.784 C360.79,234.784 361.51,234.424 362.59,234.064 C362.23,232.263 361.87,230.823 361.51,230.103 C360.79,230.103 360.07,230.463 359.349,230.463 L144.028,265.032 C144.388,266.473 144.388,267.553 144.748,268.993 L359.71,234.424 L359.71,234.424 z" fill="url(#Gradient_8)"/>
    <path d="M362.23,234.424 L362.23,234.424 z" fill="#373435"/>
    <path d="M362.23,234.424 L362.23,234.424 z" fill="url(#Gradient_9)"/>
    <path d="M187.236,96.146 C184.716,99.027 182.555,101.908 180.395,104.789 C177.154,109.11 173.914,113.791 171.033,118.472 C173.914,113.791 177.154,109.47 180.395,104.789 C182.555,101.908 184.716,99.027 187.236,96.146 z" fill="#373435"/>
    <path d="M187.236,96.146 C184.716,99.027 182.555,101.908 180.395,104.789 C177.154,109.11 173.914,113.791 171.033,118.472 C173.914,113.791 177.154,109.47 180.395,104.789 C182.555,101.908 184.716,99.027 187.236,96.146 z" fill="url(#Gradient_10)"/>
    <path d="M167.072,125.314 C167.792,124.234 168.513,123.154 169.233,121.713 C168.513,122.794 167.792,123.874 167.072,125.314 z" fill="#373435"/>
    <path d="M167.072,125.314 C167.792,124.234 168.513,123.154 169.233,121.713 C168.513,122.794 167.792,123.874 167.072,125.314 z" fill="url(#Gradient_11)"/>
    <path d="M140.427,227.222 C140.427,221.821 140.787,216.059 141.147,210.658 C140.787,216.059 140.427,221.46 140.427,227.222 z" fill="#373435"/>
    <path d="M140.427,227.222 C140.427,221.821 140.787,216.059 141.147,210.658 C140.787,216.059 140.427,221.46 140.427,227.222 z" fill="url(#Gradient_12)"/>
    <path d="M465.21,356.137 C467.73,354.337 468.811,352.176 469.171,350.376 L469.171,350.016 C469.171,348.215 468.09,346.775 467.73,346.415 C467.37,346.415 460.529,343.174 450.087,338.492 C449.727,338.853 449.367,339.573 449.007,339.573 L416.6,348.935 C416.24,348.935 415.52,348.935 415.16,348.935 L368.351,325.889 C367.631,325.529 367.271,324.809 367.271,323.728 C367.271,323.008 367.991,322.288 368.711,321.928 L394.276,316.166 L394.996,316.166 L398.597,315.446 C382.034,307.884 369.071,302.123 368.711,301.762 C367.631,302.123 140.427,347.495 112.342,352.896 C125.304,361.539 165.632,388.906 178.595,396.828 C194.438,406.551 196.598,418.794 196.958,420.235 L196.958,420.595 L196.958,420.235 C197.318,421.315 197.318,422.395 197.318,423.476 C197.318,424.196 197.318,424.916 196.958,425.636 C303.899,400.069 458.729,361.539 465.21,356.858 z M194.438,402.23 C193.717,402.23 193.357,402.23 192.637,401.87 L153.03,373.782 L152.309,373.422 L137.907,362.979 C137.187,362.619 136.826,361.539 137.187,360.819 C137.187,360.098 137.907,359.378 138.627,359.378 L345.307,317.607 L346.747,317.607 L371.952,329.85 L371.952,329.85 C373.032,329.49 373.752,330.21 374.472,331.291 L409.399,348.215 C410.119,348.575 410.479,349.295 410.479,350.376 C410.479,351.096 409.759,351.816 409.039,352.176 L336.665,369.101 L335.585,369.821 L267.532,385.665 L266.812,385.665 L194.077,402.59 z" fill="#B7B9BB"/>
    <path d="M190.477,426.717 C190.837,426.717 191.917,426.356 192.277,425.636 C192.637,424.916 192.997,423.836 192.997,423.116 C192.997,422.395 192.997,421.675 192.637,420.955 L192.637,420.955 C192.637,420.595 190.837,409.432 176.434,400.429 C162.751,392.507 120.623,363.699 108.741,355.777 C108.381,360.819 107.661,375.943 107.661,378.103 C109.821,379.184 189.037,426.356 190.117,427.077 z" fill="#EFEFF0"/>
    <path d="M196.598,419.875 L196.598,419.875 z" fill="#373435"/>
    <path d="M337.025,342.454 L326.223,344.974 L337.745,351.096 L348.907,348.575 z" fill="#EFEFF0"/>
    <path d="M263.571,368.741 L252.769,362.619 L241.607,365.14 L252.049,371.622 z" fill="#EFEFF0"/>
    <path d="M320.102,346.415 L309.3,348.935 L320.462,355.057 L320.462,355.057 L321.542,355.057 L331.624,352.536 z" fill="#EFEFF0"/>
    <path d="M239.446,350.016 L250.248,347.495 L243.407,343.534 L242.687,342.454 C238.726,343.174 234.765,343.894 230.805,344.974 L239.446,350.016 z" fill="#EFEFF0"/>
    <path d="M303.899,346.055 L314.701,343.534 L305.699,338.853 L295.257,341.373 z" fill="#EFEFF0"/>
    <path d="M320.822,342.093 L331.264,339.573 L322.262,335.252 L311.82,337.412 z" fill="#EFEFF0"/>
    <path d="M337.385,338.132 L347.467,335.972 L344.947,334.171 L339.186,331.29 L328.744,333.811 z" fill="#EFEFF0"/>
    <path d="M269.332,367.3 L280.494,364.78 L269.692,358.658 L258.53,361.179 z" fill="#EFEFF0"/>
    <path d="M197.318,371.622 L188.676,366.22 L177.514,368.741 L185.796,374.142 z" fill="#EFEFF0"/>
    <path d="M337.385,355.417 L326.223,357.938 L326.583,358.298 L336.665,363.699 L337.385,364.059 C341.346,362.979 345.307,362.259 348.907,361.179 L337.025,355.057 z" fill="#EFEFF0"/>
    <path d="M286.255,363.339 L297.417,360.819 L286.615,354.337 L275.453,357.218 z" fill="#EFEFF0"/>
    <path d="M292.376,353.257 L303.539,359.378 L314.341,356.497 L303.179,350.376 z" fill="#EFEFF0"/>
    <path d="M343.146,341.013 L355.029,347.135 L365.831,344.614 L353.948,338.492 z" fill="#EFEFF0"/>
    <path d="M235.846,366.58 L224.683,369.101 L234.765,375.583 L246.288,373.062 z" fill="#EFEFF0"/>
    <path d="M354.308,351.456 L343.146,353.977 L353.948,359.738 L354.669,360.098 C358.629,359.018 362.59,358.298 366.191,357.218 L353.948,351.096 z" fill="#EFEFF0"/>
    <path d="M230.805,363.339 L222.163,358.298 L211.001,360.819 L219.642,366.22 z" fill="#EFEFF0"/>
    <path d="M286.975,350.016 L297.778,347.495 L289.136,342.814 L278.334,345.334 z" fill="#EFEFF0"/>
    <path d="M202.719,370.181 L213.881,367.66 L205.6,362.259 L194.438,364.78 z" fill="#EFEFF0"/>
    <path d="M272.933,342.454 L283.735,339.933 L277.614,336.692 L276.893,335.612 C272.933,336.332 269.332,337.052 265.371,337.772 L273.293,342.093 z" fill="#EFEFF0"/>
    <path d="M270.412,353.977 L281.214,351.456 L272.213,346.775 L261.411,349.295 z" fill="#EFEFF0"/>
    <path d="M236.566,362.259 L247.728,359.378 L239.086,354.337 L227.924,356.857 z" fill="#EFEFF0"/>
    <path d="M218.922,370.541 L207.76,373.062 L216.042,378.823 L217.122,379.184 L217.122,379.544 L217.842,379.544 L229.364,377.023 z" fill="#EFEFF0"/>
    <path d="M222.883,353.977 L233.685,351.456 L226.484,347.135 L225.764,346.055 C221.803,346.775 217.842,347.495 213.881,348.575 L223.243,353.977 z" fill="#EFEFF0"/>
    <path d="M253.489,358.298 L264.291,355.417 L255.649,350.376 L244.847,352.896 z" fill="#EFEFF0"/>
    <path d="M172.473,365.5 L183.635,362.979 L175.354,357.578 C174.994,357.218 174.634,356.857 174.634,356.137 C170.313,357.218 165.992,357.938 162.391,358.658 L172.833,365.5 z" fill="#EFEFF0"/>
    <path d="M256.37,346.055 L267.172,343.534 L260.69,339.933 L259.97,338.853 C256.009,339.573 252.049,340.293 248.448,341.373 L256.73,346.055 z" fill="#EFEFF0"/>
    <path d="M167.792,378.463 L180.395,375.583 L171.753,370.181 L159.151,373.062 C161.671,374.862 164.552,377.023 167.432,378.823 L167.792,378.463 z" fill="#EFEFF0"/>
    <path d="M387.435,343.534 L377.713,345.694 L389.235,351.456 L389.955,351.816 C396.797,350.376 401.117,349.295 402.558,348.935 C400.037,347.855 394.996,345.334 388.515,342.093 C388.155,342.814 387.795,343.174 387.075,343.174 z" fill="#EFEFF0"/>
    <path d="M167.072,366.94 L158.431,361.179 C158.071,360.819 157.71,360.458 157.71,359.738 C150.509,361.179 145.828,362.259 144.748,362.259 C146.548,363.339 150.149,366.22 155.19,369.461 L167.432,366.58 z" fill="#EFEFF0"/>
    <path d="M189.397,361.539 L200.559,359.018 L192.637,353.977 C192.277,353.617 191.917,353.257 191.917,352.896 C187.596,353.617 183.635,354.697 179.675,355.417 L189.757,361.899 z" fill="#EFEFF0"/>
    <path d="M209.2,394.308 L199.479,388.186 L185.076,391.427 C190.117,395.028 193.717,397.549 194.077,397.909 C194.438,397.909 199.839,396.468 208.84,394.308 z" fill="#EFEFF0"/>
    <path d="M333.785,324.089 L339.546,326.969 L350.348,324.449 L351.068,324.089 C348.187,322.648 346.027,321.568 345.667,321.568 C345.307,321.568 340.986,322.648 333.785,324.089 z" fill="#EFEFF0"/>
    <path d="M371.592,347.495 L360.43,350.016 L371.592,355.777 L372.312,356.137 C376.633,355.057 380.233,354.337 383.834,353.617 L371.232,347.495 z" fill="#EFEFF0"/>
    <path d="M306.419,334.531 L316.861,332.011 L311.82,329.49 L311.1,328.77 C307.499,329.49 303.899,330.21 299.938,330.93 L306.779,334.531 z" fill="#EFEFF0"/>
    <path d="M322.982,330.93 L333.424,328.41 L328.743,326.249 L328.023,325.529 C324.783,326.249 320.822,326.969 316.861,327.69 L322.982,330.93 z" fill="#EFEFF0"/>
    <path d="M289.496,338.492 L299.938,335.972 L294.537,333.091 L293.817,332.371 C290.216,333.091 286.255,333.811 282.295,334.531 L289.496,338.492 z" fill="#EFEFF0"/>
    <path d="M234.045,379.904 L222.523,382.785 L231.525,388.546 L232.245,388.906 C236.206,388.186 240.166,387.106 244.487,386.025 L234.405,379.904 z" fill="#EFEFF0"/>
    <path d="M217.122,384.225 L205.24,387.106 L214.241,392.867 L214.962,393.227 C218.562,392.507 222.883,391.427 227.204,390.347 L217.482,384.225 z" fill="#EFEFF0"/>
    <path d="M251.329,375.943 L239.806,378.823 L249.168,384.585 L249.888,384.945 C253.849,383.865 257.81,383.145 261.771,382.064 L251.329,375.943 z" fill="#EFEFF0"/>
    <path d="M196.598,351.816 L206.32,357.938 L217.482,355.417 L209.921,350.736 C209.56,350.376 209.2,350.016 209.2,349.656 C205.24,350.376 201.279,351.456 197.318,352.176 z" fill="#EFEFF0"/>
    <path d="M346.027,329.85 C348.907,331.651 351.788,333.811 352.868,334.531 C354.308,334.171 358.269,333.091 358.269,333.091 C358.629,333.091 359.349,333.091 359.71,333.091 C359.71,333.091 372.312,339.213 373.392,339.573 C374.112,339.573 376.633,338.853 379.513,338.132 C372.672,334.892 356.829,326.969 356.829,326.969 L356.469,326.609 L356.469,326.609 C355.389,326.609 351.068,328.05 346.027,329.49 z" fill="#EFEFF0"/>
    <path d="M320.822,359.018 C319.022,359.378 266.451,372.342 258.53,374.502 C262.131,377.023 267.172,380.264 267.892,380.984 C269.332,380.624 322.982,368.021 330.544,366.58 C326.583,363.699 321.542,360.098 320.462,359.378 z" fill="#EFEFF0"/>
    <path d="M268.252,385.305 L336.305,369.461 L337.385,368.741 L409.759,351.816 C410.479,351.456 411.199,350.736 411.199,350.016 C411.199,349.295 410.839,348.215 410.119,347.855 L375.193,330.93 C374.832,329.85 373.752,329.49 372.672,329.49 L372.672,329.49 L347.467,317.247 L346.027,317.247 L139.347,359.018 C138.627,359.018 137.907,359.738 137.907,360.458 C137.907,361.179 137.907,362.259 138.627,362.619 L153.03,373.062 L153.75,373.422 L193.357,401.51 C193.717,401.87 194.438,401.87 195.158,401.87 L267.892,384.945 L268.612,384.945 z M249.888,385.305 L249.168,384.945 L239.806,379.184 L251.329,376.303 L261.771,382.424 C257.81,383.505 253.489,384.225 249.888,385.305 z M232.245,389.266 L231.525,388.906 L222.523,383.145 L234.045,380.264 L244.127,386.386 C239.806,387.466 235.846,388.186 231.885,389.266 z M214.601,393.227 L213.881,392.867 L204.88,387.106 L216.762,384.225 L226.484,390.347 C222.163,391.427 217.842,392.507 214.241,393.227 z M293.817,332.371 L294.537,333.091 L299.938,335.972 L289.496,338.492 L282.295,334.531 C286.255,333.811 289.856,333.091 293.817,332.371 z M310.74,328.77 L311.46,329.49 L316.501,332.011 L306.059,334.531 L299.218,330.93 C303.179,330.21 306.779,329.49 310.38,328.77 z M327.663,325.169 L328.383,325.889 L333.064,328.05 L322.622,330.57 L316.501,327.329 C320.462,326.609 324.423,325.889 327.663,325.169 z M372.312,356.137 L371.592,355.777 L360.43,350.016 L371.592,347.495 L384.194,353.617 C380.594,354.337 376.993,355.417 372.672,356.137 z M354.669,360.098 L353.948,359.738 L343.146,353.977 L354.308,351.456 L366.551,357.578 C362.95,358.298 358.989,359.378 355.029,360.458 z M337.025,364.059 L336.305,363.699 L326.223,358.298 L325.863,357.938 L337.025,355.417 L348.907,361.539 C344.947,362.259 341.346,363.339 337.385,364.42 z M188.316,365.5 L196.958,370.901 L185.436,373.422 L177.154,368.021 L188.316,365.5 z M330.184,365.86 C322.622,367.66 268.972,379.904 267.532,380.264 C266.451,379.544 261.771,376.303 258.17,373.782 C265.731,371.982 318.662,359.018 320.462,358.298 C321.542,359.018 326.583,362.619 330.544,365.5 z M302.819,358.658 L292.016,352.536 L302.819,350.016 L313.981,356.137 L302.819,359.018 z M297.057,360.098 L285.895,362.979 L275.093,356.857 L286.255,354.337 L297.417,360.458 z M280.134,364.059 L268.972,366.58 L258.17,360.098 L269.332,357.578 L280.134,363.699 z M252.409,361.899 L263.211,368.021 L251.689,370.901 L241.247,364.42 L252.409,361.899 z M321.182,354.337 L320.102,354.337 L319.742,354.337 L308.58,348.575 L319.382,346.055 L330.904,352.176 L320.822,354.697 z M325.863,344.254 L336.665,341.733 L348.547,347.855 L337.745,350.376 L326.223,344.254 z M344.587,333.091 L347.107,334.891 L337.385,337.412 L328.383,332.731 L338.825,330.21 L344.587,333.091 z M331.264,338.492 L320.462,341.013 L311.46,336.332 L321.902,333.811 L330.904,338.492 z M314.701,342.454 L303.899,344.974 L295.257,340.293 L306.059,337.772 L315.061,342.454 z M298.138,346.415 L287.336,348.935 L278.694,343.894 L289.496,341.373 L298.498,346.055 z M281.574,350.376 L270.772,352.896 L262.131,347.855 L272.933,345.334 L281.574,350.376 z M264.651,354.337 L253.489,356.857 L244.847,351.816 L255.649,349.295 L264.291,354.337 z M247.728,358.298 L236.566,360.819 L227.924,355.777 L239.086,353.257 L247.728,358.298 z M201.999,373.782 C202.719,374.142 207.04,376.663 210.641,378.823 C203.799,380.624 182.915,386.025 181.115,386.386 C180.035,385.665 176.434,383.145 173.193,380.624 C179.675,379.184 200.559,373.782 201.639,373.422 z M217.122,378.103 L217.122,378.103 L216.042,377.383 L207.4,371.982 L218.922,369.461 L229.364,375.943 L217.842,378.823 L217.482,378.463 z M224.323,368.021 L235.486,365.5 L245.928,371.982 L234.405,374.862 L223.963,368.381 z M354.669,346.055 L342.786,339.933 L353.588,337.412 L365.831,343.534 L355.029,346.055 z M356.109,325.889 L356.469,326.249 C356.469,326.249 371.952,333.811 379.153,337.412 C376.273,338.132 373.752,338.492 373.032,338.853 C371.952,338.132 359.349,332.371 359.349,332.371 C358.989,332.011 358.269,332.011 357.909,332.371 C357.909,332.371 353.948,333.451 352.508,333.811 C351.788,333.091 348.907,331.29 345.667,329.13 C350.708,327.69 355.029,326.249 356.109,326.249 L356.109,326.249 z M221.803,357.218 L230.445,362.259 L219.282,364.78 L210.641,359.378 L221.803,356.857 z M213.521,366.58 L202.359,369.101 L193.717,363.699 L204.88,361.179 L213.521,366.58 z M276.173,334.891 L276.893,335.972 L283.015,339.213 L272.213,341.733 L264.291,337.412 C268.252,336.692 272.213,335.972 275.813,335.252 z M259.25,338.492 L259.97,339.573 L266.451,343.174 L255.649,345.694 L247.368,341.013 C251.329,340.293 255.289,339.573 258.89,338.492 z M242.327,342.093 L243.047,343.174 L249.888,347.135 L239.086,349.656 L230.445,344.614 C234.405,343.894 238.366,343.174 242.327,342.093 z M225.404,345.694 L226.124,346.775 L233.325,351.096 L222.523,353.617 L213.161,348.215 C217.122,347.495 221.083,346.775 225.043,345.694 z M208.48,349.295 C208.48,349.656 208.84,350.016 209.2,350.376 L216.762,355.057 L205.6,357.578 L195.878,351.456 C199.839,350.736 203.799,350.016 207.76,348.935 z M174.274,356.137 C174.274,356.497 174.634,357.218 174.994,357.578 L183.275,362.979 L172.113,365.5 L161.671,358.658 C165.272,357.938 169.233,357.218 173.914,356.137 z M171.753,369.821 L180.395,375.223 L167.792,378.103 L167.432,378.463 C164.552,376.303 162.031,374.502 159.151,372.702 L171.753,369.821 z M389.955,352.176 L389.235,351.816 L377.713,346.055 L387.435,343.894 C388.155,343.894 388.515,343.174 388.875,342.814 C395.356,345.694 400.397,348.215 402.918,349.656 C401.478,350.016 397.157,351.096 390.315,352.536 z M349.988,324.449 L339.186,326.969 L333.424,324.089 C340.626,322.648 344.947,321.568 345.307,321.568 C345.667,321.568 347.467,322.648 350.708,324.089 L349.988,324.449 z M192.277,353.977 L200.199,359.018 L189.037,361.539 L178.955,355.057 C182.915,354.337 186.876,353.617 191.197,352.536 C191.197,352.896 191.557,353.617 191.917,353.617 z M157.35,359.738 C157.35,360.098 157.71,360.819 158.071,361.179 L166.712,366.94 L154.47,369.821 C149.789,366.22 145.828,363.699 144.028,362.619 C145.108,362.259 150.149,361.539 156.99,360.098 z M199.479,388.186 L209.2,394.308 C200.199,396.468 194.438,397.549 194.438,397.909 C194.077,397.549 190.477,395.028 185.436,391.427 L199.839,388.186 z" fill="#373435"/>
    <path d="M210.641,380.264 C207.04,378.103 202.719,375.583 201.999,375.223 C200.559,375.583 179.675,380.624 173.554,382.424 C176.794,384.945 180.755,387.466 181.475,388.186 C182.915,387.826 203.799,382.424 211.001,380.624 z" fill="#EFEFF0"/>
    <path d="M422.362,342.814 L414.44,338.492 L407.959,340.293 C412.64,342.454 415.88,344.254 416.24,344.254 C416.6,344.254 419.121,343.534 422.362,342.454 z" fill="#EFEFF0"/>
    <path d="M414.8,334.531 L419.841,333.091 L408.679,327.329 L403.998,328.77 z" fill="#EFEFF0"/>
    <path d="M398.597,325.889 L403.278,324.449 L394.636,319.767 C392.836,320.127 391.396,320.488 389.595,320.848 L398.597,325.529 z" fill="#EFEFF0"/>
    <path d="M402.918,337.772 L409.039,335.972 L398.237,330.21 L391.036,332.371 C394.996,334.171 398.957,336.332 402.558,338.132 L402.918,337.772 z" fill="#EFEFF0"/>
    <path d="M385.995,329.85 L386.715,329.49 L393.196,327.69 L384.194,323.008 L383.834,322.648 C380.594,323.368 377.713,324.089 375.553,324.449 C377.713,325.529 381.674,327.329 386.355,329.85 z" fill="#EFEFF0"/>
    <path d="M424.882,335.972 L420.201,337.412 L427.403,341.373 L427.763,341.733 C429.563,341.373 431.003,340.653 432.804,340.293 L424.882,335.972 z" fill="#EFEFF0"/>
    <path d="M409.039,323.008 L411.199,322.288 C406.519,320.127 402.918,318.327 402.558,318.327 C402.198,318.327 401.478,318.687 400.397,318.687 L408.679,323.008 z" fill="#EFEFF0"/>
    <path d="M442.526,337.052 C440.725,336.332 437.845,334.892 434.244,333.091 L430.643,334.171 L437.485,337.772 L438.205,338.492 C440.005,338.132 441.445,337.412 442.526,337.412 z" fill="#EFEFF0"/>
    <path d="M425.242,331.29 L428.483,330.21 C424.522,328.41 420.201,326.249 416.24,324.449 L415.16,325.169 L414.08,325.529 L425.242,331.29 z" fill="#EFEFF0"/>
  </g>
</svg>
